<svg width="20" height="21" viewBox="0 0 20 21" fill="none" xmlns="http://www.w3.org/2000/svg">
<path d="M1.03032 10.7902C0.96814 10.6036 0.96808 10.4016 1.03016 10.215C2.27991 6.45802 5.8239 3.74878 10.0007 3.74878C14.1755 3.74878 17.7181 6.4555 18.9694 10.2098C19.0316 10.3964 19.0317 10.5984 18.9696 10.785C17.7199 14.542 14.1759 17.2512 9.9991 17.2512C5.82427 17.2512 2.28163 14.5445 1.03032 10.7902Z" stroke="black" stroke-width="1.5" stroke-linecap="round" stroke-linejoin="round"/>
<path d="M12.7004 10.5C12.7004 11.9914 11.4914 13.2005 9.99994 13.2005C8.50851 13.2005 7.29946 11.9914 7.29946 10.5C7.29946 9.00856 8.50851 7.79951 9.99994 7.79951C11.4914 7.79951 12.7004 9.00856 12.7004 10.5Z" stroke="black" stroke-width="1.5" stroke-linecap="round" stroke-linejoin="round"/>
</svg>
